<svg xmlns="http://www.w3.org/2000/svg" viewBox="0 0 198.1 198.1"><g fill="#464342"><path d="M14.1 99c0 33.6 19.5 62.7 47.9 76.5l-40.5-111C16.7 75 14.1 86.7 14.1 99zM156.4 94.8c0-10.5-3.8-17.8-7-23.4-4.3-7-8.3-12.9-8.3-19.9 0-7.8 5.9-15.1 14.3-15.1.4 0 .7 0 1.1.1-15.2-14-35.3-22.4-57.5-22.4-29.7 0-55.8 15.2-71 38.3 2 .1 3.9.1 5.5.1 8.9 0 22.6-1.1 22.6-1.1 4.6-.3 5.1 6.5.5 7 0 0-4.6.5-9.7.8l30.9 92 18.6-55.8-13.1-36.2c-4.6-.3-8.9-.8-8.9-.8-4.6-.3-4-7.3.5-7 0 0 14 1.1 22.4 1.1 8.9 0 22.6-1.1 22.6-1.1 4.6-.3 5.1 6.5.5 7 0 0-4.6.5-9.7.8l30.7 91.3 8.5-28.3c3.7-11.7 6.5-20.2 6.5-27.4z"/><path d="M100.5 106.5l-25.5 74c7.6 2.2 15.7 3.5 24 3.5 9.9 0 19.4-1.7 28.2-4.8l-.6-1.2-26.1-71.5zM173.6 58.3c.4 2.7.6 5.6.6 8.7 0 8.6-1.6 18.3-6.5 30.4l-26 75C167 157.7 184 130.4 184 99c0-14.7-3.8-28.6-10.4-40.7z"/><path d="M99 0C44.4 0 0 44.4 0 99s44.4 99 99 99 99-44.4 99-99c.1-54.6-44.3-99-99-99zm0 193.5c-52.1 0-94.5-42.4-94.5-94.5S46.9 4.5 99 4.5s94.5 42.4 94.5 94.5-42.4 94.5-94.5 94.5z"/></g></svg>